<?xml version="1.0" encoding="UTF-8"?><svg id="a" xmlns="http://www.w3.org/2000/svg" xmlns:xlink="http://www.w3.org/1999/xlink" viewBox="0 0 508.16 129.78"><defs><style>.o{fill:#fcb95d;}.o,.p,.q,.r,.s,.t,.u,.v,.w,.x,.y,.z,.aa,.ab{stroke-width:0px;}.p{fill:url(#b);}.q{fill:url(#c);}.r{fill:url(#e);}.s{fill:url(#f);}.t{fill:url(#d);}.u{fill:url(#j);}.v{fill:url(#i);}.w{fill:url(#h);}.x{fill:url(#m);}.y{fill:url(#g);}.z{fill:url(#k);}.aa{fill:url(#n);}.ab{fill:url(#l);}</style><linearGradient id="b" x1="330.36" y1="118.77" x2="330.36" y2="0" gradientUnits="userSpaceOnUse"><stop offset="0" stop-color="#006838"/><stop offset="1" stop-color="#39b54a"/></linearGradient><linearGradient id="c" x1="62.83" y1="126.18" x2="62.83" y2="25.6" gradientUnits="userSpaceOnUse"><stop offset="0" stop-color="#ef4136"/><stop offset="1" stop-color="#f47529"/></linearGradient><linearGradient id="d" x1="170.78" x2="170.78" y2="36.23" xlink:href="#c"/><linearGradient id="e" x1="199.03" x2="199.03" y2="36.23" xlink:href="#c"/><linearGradient id="f" x1="140.63" x2="140.63" y2="67.27" xlink:href="#c"/><linearGradient id="g" x1="145.37" y1="62.78" x2="145.37" y2="34.17" xlink:href="#c"/><linearGradient id="h" x1="485.14" y1="126.96" x2="485.14" y2="68.05" xlink:href="#c"/><linearGradient id="i" x1="490.51" y1="63.56" x2="490.51" y2="34.95" xlink:href="#c"/><linearGradient id="j" x1="415.36" y1="126.96" x2="415.36" y2="48.96" xlink:href="#c"/><linearGradient id="k" x1="302.89" y1="126.96" x2="302.89" y2="67.96" xlink:href="#c"/><linearGradient id="l" x1="451.46" y1="126.96" x2="451.46" y2="67.44" xlink:href="#c"/><linearGradient id="m" x1="370.66" y1="127.37" x2="370.66" y2="63.74" xlink:href="#c"/><linearGradient id="n" x1="236.96" y1="127.37" x2="236.96" y2="63.74" xlink:href="#c"/></defs><path class="p" d="M153.59,114.15L286.24,15.53c.87-.65,2.06-.68,2.97-.07l55.44,37.51c.87.59,2.02.59,2.89-.01L423.89.45c1.16-.8,2.74-.51,3.55.63l80.25,113.64c1.2,1.7-.02,4.04-2.09,4.04H155.12c-2.47,0-3.51-3.15-1.53-4.62Z"/><path class="o" d="M190.55,37.22c-.33-.38-.8-.59-1.3-.59h-21.04c-.86,0-1.6.65-1.72,1.5l-11.91,88.49c-.07.5.08,1,.41,1.37s.8.59,1.3.59h21.04c.86,0,1.6-.65,1.72-1.5l11.91-88.49c.07-.5-.08-.99-.41-1.37Z"/><path class="o" d="M218.81,37.22c-.33-.38-.8-.59-1.3-.59h-21.04c-.86,0-1.6.65-1.72,1.5l-11.91,88.49c-.07.5.08,1,.41,1.37.33.38.8.59,1.3.59h21.04c.86,0,1.6-.65,1.72-1.5l11.91-88.49c.07-.5-.08-.99-.41-1.37Z"/><path class="o" d="M158.67,68.27c-.33-.38-.81-.6-1.31-.6h-21.04c-.85,0-1.59.64-1.71,1.48l-7.49,51.18-25.61-92.63c-.25-.92-1.03-1.58-1.97-1.69-.94-.12-1.85.35-2.31,1.18l-24.19,43.48c-.08.15-.2.17-.29.17-.07,0-.21-.03-.29-.18l-17.42-34.3c-.39-.77-1.17-1.26-2.03-1.27-.02,0-.03,0-.05,0-.84,0-1.62.45-2.03,1.19L1.3,125.12h0c-.41.73-.4,1.59.03,2.31.42.72,1.17,1.15,2.01,1.15h123c.29,0,.57-.07.84-.17.23.11.48.17.74.17h21.04c.85,0,1.59-.64,1.71-1.48l8.41-57.44c.07-.5-.07-1-.4-1.38Z"/><path class="o" d="M147.37,65.19c7.28,0,13.2-6.87,13.2-15.31s-5.92-15.31-13.2-15.31-13.2,6.87-13.2,15.31,5.92,15.31,13.2,15.31Z"/><path class="o" d="M501.87,68.46h-21.04c-.85,0-1.59.64-1.71,1.48l-8.41,57.44c-.07.5.07,1,.4,1.38.33.38.81.6,1.31.6h21.04c.85,0,1.59-.64,1.71-1.48l8.41-57.44c.07-.5-.07-1-.4-1.38-.33-.38-.81-.6-1.31-.6Z"/><path class="o" d="M492.51,65.97c7.28,0,13.2-6.87,13.2-15.31s-5.92-15.31-13.2-15.31-13.2,6.87-13.2,15.31,5.92,15.31,13.2,15.31Z"/><path class="o" d="M432.86,91.33l3-21.54c.07-.5-.08-1-.41-1.38-.33-.38-.81-.59-1.31-.59h-1.67l2.39-16.48c.07-.5-.08-1-.4-1.38-.33-.38-.81-.6-1.31-.6h-21.04c-.85,0-1.59.64-1.71,1.48l-2.46,16.97h-4.36c-.86,0-1.6.64-1.71,1.49l-3,21.54c-.07.5.08,1,.41,1.38.33.38.81.59,1.31.59h3.73l-5.01,34.56c-.07.5.08,1,.4,1.38.33.38.81.6,1.31.6h21.04c.85,0,1.59-.64,1.71-1.48l5.08-35.06h2.29c.86,0,1.6-.64,1.71-1.49Z"/><path class="o" d="M345.63,74.94c-2.5-3.57-7.21-5.75-14-6.48-7.21-.78-11.9,2.97-14.29,7.29-1.03-3.33-4.11-7.17-12.8-7.29-4.14-.05-7.45,1.41-9.58,3.37l.2-1.39c.07-.5-.07-1-.4-1.38-.33-.38-.81-.6-1.31-.6h-21.04c-.85,0-1.59.64-1.71,1.48l-8.41,57.44c-.07.5.07,1,.4,1.38s.81.6,1.31.6h21.04c.85,0,1.59-.64,1.71-1.48l4.49-30.66c.25-1.74,1.19-3.23,2.56-4.09.36-.22.58-.31.7-.34.05.19.13.68-.03,1.75l-4.81,32.83c-.07.5.07,1,.4,1.38.33.38.81.6,1.31.6h21.04c.85,0,1.59-.64,1.71-1.48l4.52-30.9c.23-1.55,1.04-2.89,2.22-3.67.09-.06.17-.11.24-.14.02.24.03.66-.08,1.37l-4.81,32.83c-.07.5.07,1,.4,1.38s.81.6,1.31.6h21.04c.85,0,1.59-.64,1.71-1.48l5.38-36.77,1.26-8.25c.04-.17.97-4.11-1.71-7.92Z"/><path class="o" d="M472.24,97.3l3.76-27.02c.13-.91-.48-1.77-1.38-1.94-4.85-.95-8.5-.54-10.91,1.22-.07-.18-.17-.35-.3-.49-.33-.38-.81-.6-1.31-.6h-21.04c-.85,0-1.59.64-1.71,1.48l-8.41,57.44c-.07.5.07,1,.4,1.38.33.38.81.6,1.31.6h21.04c.85,0,1.59-.64,1.71-1.48l4.17-28.46c4.76-4.04,7.9-2.84,9.7-1.11.48.47,1.18.62,1.81.4.62-.22,1.07-.76,1.16-1.42Z"/><path class="o" d="M375.86,64.15c-7.02-.25-14.26,3.01-19.87,8.96-5.78,6.14-9.14,14.27-9.45,22.89-.7,19.05,8.94,33.25,22.92,33.76.25,0,.51.01.76.01,10.51,0,21.06-7.9,25.85-19.47.22-.52.16-1.11-.14-1.59-.31-.48-.83-.78-1.4-.8l-19.99-.73c-.84-.02-1.57.54-1.75,1.35-.2.9-.84,2.99-2.33,2.99-.01,0-.03,0-.04,0-.51-.01-.89-.19-1.18-.56-1.11-1.43-.76-5.26-.29-7.34l-.97-.22,28.73,1.05s0,0,0,0l.97.25c.57-2.22.99-4.01,1.09-6.79.7-19.05-8.94-33.25-22.92-33.76ZM374.48,84.48c.83-.02,1.39.24,1.83.76,1.11,1.33,1.06,4.12.87,5.77l-7.31-.27c.31-2,1.37-6.24,4.61-6.27Z"/><path class="o" d="M262.23,108.72c-.31-.48-.83-.78-1.4-.8l-19.99-.73c-.83-.02-1.57.54-1.75,1.35-.2.9-.84,2.99-2.33,2.99-.01,0-.03,0-.04,0-.51-.01-.89-.19-1.18-.56-1.11-1.43-.76-5.26-.29-7.34l-.97-.22,28.73,1.05s0,0,0,0l.97.25c.57-2.22.99-4.01,1.09-6.79.7-19.05-8.94-33.25-22.92-33.76-7.02-.25-14.26,3.01-19.87,8.96-5.78,6.14-9.14,14.27-9.45,22.89-.7,19.05,8.94,33.25,22.92,33.76.25,0,.51.01.76.01,10.51,0,21.06-7.9,25.85-19.47.22-.52.16-1.11-.14-1.59ZM242.61,85.24c1.11,1.33,1.06,4.12.87,5.77l-7.31-.27c.31-2,1.37-6.24,4.61-6.27.82-.02,1.39.24,1.83.76Z"/><path class="q" d="M.17,124.2L49.79,35.36c.52-.93,1.86-.9,2.34.05l17.42,34.3c.48.95,1.83.97,2.34.04l24.19-43.48c.58-1.04,2.12-.85,2.44.29l27.08,97.92c.23.85-.4,1.68-1.28,1.68H1.33c-1.01,0-1.65-1.09-1.16-1.98Z"/><path class="t" d="M187.25,36.23h-21.04c-.37,0-.68.27-.72.63l-11.91,88.49c-.06.44.28.83.72.83h21.04c.37,0,.68-.27.72-.63l11.91-88.49c.06-.44-.28-.83-.72-.83Z"/><path class="r" d="M215.5,36.23h-21.04c-.37,0-.68.27-.72.63l-11.91,88.49c-.06.44.28.83.72.83h21.04c.37,0,.68-.27.72-.63l11.91-88.49c.06-.44-.28-.83-.72-.83Z"/><path class="s" d="M155.36,67.27h-21.04c-.36,0-.67.27-.72.63l-8.41,57.44c-.06.44.28.84.72.84h21.04c.36,0,.67-.27.72-.63l8.41-57.44c.06-.44-.28-.84-.72-.84Z"/><ellipse class="y" cx="145.37" cy="48.48" rx="12.2" ry="14.31"/><path class="w" d="M499.87,68.05h-21.04c-.36,0-.67.27-.72.63l-8.41,57.44c-.06.44.28.84.72.84h21.04c.36,0,.67-.27.72-.63l8.41-57.44c.06-.44-.28-.84-.72-.84Z"/><ellipse class="v" cx="490.51" cy="49.26" rx="12.2" ry="14.31"/><path class="u" d="M432.14,67.42h-2.82l2.55-17.62c.06-.44-.28-.84-.72-.84h-21.04c-.36,0-.67.27-.72.63l-2.58,17.83h-5.22c-.36,0-.67.27-.72.63l-3,21.54c-.06.44.28.83.72.83h4.89l-5.18,35.71c-.06.44.28.84.72.84h21.04c.36,0,.67-.27.72-.63l5.21-35.92h3.15c.36,0,.67-.27.72-.63l3-21.54c.06-.44-.28-.83-.72-.83Z"/><path class="z" d="M329.52,68.05c-8.93-.96-13.27,5.43-14.55,9.72-.03.09-.15.07-.15-.02.04-3.44-1.42-9.55-12.3-9.7-5.57-.08-9.5,2.76-10.84,5.73-.05.12-.23.06-.21-.07l.71-4.83c.06-.44-.28-.84-.72-.84h-21.04c-.36,0-.67.27-.72.63l-8.41,57.44c-.06.44.28.84.72.84h21.04c.36,0,.67-.27.72-.63l4.49-30.66c.29-1.95,1.34-3.74,3.01-4.79,1.39-.87,2.68-.94,2.19,2.4h0l-4.81,32.83c-.06.44.28.84.72.84h21.04c.36,0,.67-.27.72-.63l4.52-30.9c.26-1.75,1.18-3.38,2.66-4.36,1.12-.74,2.13-.74,1.7,2.21l-4.81,32.83c-.06.44.28.84.72.84h21.04c.36,0,.67-.27.72-.63l5.38-36.77,1.28-8.33s2.77-11.27-14.84-13.17ZM291.17,75.72h0s0,0,0,0c0,0,0,0,0,0Z"/><path class="ab" d="M460.51,70.95l.3-2.06c.06-.44-.28-.84-.72-.84h-21.04c-.36,0-.67.27-.72.63l-8.41,57.44c-.06.44.28.84.72.84h21.04c.36,0,.67-.27.72-.63l4.22-28.83c5.79-5.1,9.61-2.97,11.33-1.31.45.43,1.2.19,1.29-.43l3.76-27.03c.05-.38-.21-.75-.59-.82-7.87-1.54-10.73.99-11.91,3.04Z"/><path class="x" d="M394.72,103.05c.61-2.38.96-4,1.06-6.58.64-17.61-8.08-32.22-21.96-32.72s-27.64,13.28-28.28,30.89c-.64,17.61,8.08,32.22,21.96,32.72,10.49.38,20.91-7.41,25.65-18.84.19-.47-.15-.99-.66-1.01l-19.99-.73c-.35-.01-.66.22-.74.57-.27,1.2-1.12,3.83-3.37,3.77-4.49-.12-2.41-9.13-2.41-9.13l28.73,1.05ZM372.47,82.08c5.22-.05,3.57,8.57,3.57,8.57l-9.29-.34s.5-8.18,5.72-8.23Z"/><path class="aa" d="M261.02,103.05c.61-2.38.96-4,1.06-6.58.64-17.61-8.08-32.22-21.96-32.72s-27.64,13.28-28.28,30.89c-.64,17.61,8.08,32.22,21.96,32.72,10.49.38,20.91-7.41,25.65-18.84.19-.47-.15-.99-.66-1.01l-19.99-.73c-.35-.01-.66.22-.74.57-.27,1.2-1.12,3.83-3.37,3.77-4.49-.12-2.41-9.13-2.41-9.13l28.73,1.05ZM238.77,82.08c5.22-.05,3.57,8.57,3.57,8.57l-9.29-.34s.5-8.18,5.72-8.23Z"/></svg>