<?xml version="1.0" standalone="no"?>
<!DOCTYPE svg PUBLIC "-//W3C//DTD SVG 20010904//EN"
 "http://www.w3.org/TR/2001/REC-SVG-20010904/DTD/svg10.dtd">
<svg version="1.0" xmlns="http://www.w3.org/2000/svg"
 width="2083.000000pt" height="2083.000000pt" viewBox="0 0 2083.000000 2083.000000"
 preserveAspectRatio="xMidYMid meet">
<metadata>
Created by potrace 1.14, written by Peter Selinger 2001-2017
</metadata>
<g transform="translate(0.000000,2083.000000) scale(0.100000,-0.100000)"
fill="#000000" stroke="none">
<path d="M13600 15818 c-24 -17 -70 -92 -182 -293 -284 -510 -1246 -2236
-1678 -3010 -95 -170 -206 -370 -247 -444 -41 -74 -136 -245 -211 -380 -76
-135 -151 -272 -167 -304 -65 -127 -128 -164 -211 -128 -23 10 -45 25 -50 32
-5 7 -416 814 -914 1793 -1001 1969 -924 1832 -1020 1824 -25 -3 -57 -12 -71
-21 -16 -11 -85 -123 -184 -299 -87 -156 -318 -569 -513 -918 -195 -349 -394
-705 -442 -790 -429 -767 -672 -1201 -750 -1340 -51 -91 -104 -185 -118 -210
-14 -25 -75 -133 -135 -240 -61 -107 -116 -205 -121 -217 -6 -13 -14 -23 -18
-23 -5 0 -8 -7 -8 -16 0 -9 -5 -12 -12 -8 -7 4 -8 3 -4 -4 11 -18 -35 -95 -47
-80 -6 9 -7 7 -3 -5 8 -25 -20 -77 -42 -77 -9 0 -1465 0 -3234 0 l-3218 0 0
-5325 0 -5325 10415 0 10415 0 0 5325 0 5325 -2594 0 -2593 0 5 -26 c3 -19 7
-23 14 -12 7 9 7 7 3 -9 -3 -12 21 -118 59 -255 36 -128 108 -390 161 -583 53
-192 107 -388 120 -435 13 -47 164 -593 335 -1215 172 -621 329 -1193 350
-1270 22 -78 121 -436 220 -795 164 -591 181 -661 177 -713 -9 -100 -91 -200
-185 -227 -25 -7 -2042 -10 -6383 -10 -5666 0 -6350 2 -6390 15 -143 49 -215
218 -152 358 l22 47 6248 0 c6179 0 6248 0 6280 20 37 22 63 67 63 107 0 15
-119 458 -264 983 -146 525 -487 1761 -760 2745 -272 985 -646 2337 -831 3005
-185 668 -469 1694 -631 2280 -161 586 -300 1080 -309 1098 -32 69 -130 94
-195 50z m-7295 -5410 c5 4 5 1 1 -6 -6 -10 -11 -10 -22 -1 -8 6 -14 14 -14
16 0 3 6 0 13 -6 8 -6 18 -7 22 -3z"/>
<path d="M15624 10755 c-7 -18 4 -37 17 -29 6 4 6 10 0 18 -6 7 -8 16 -4 19 3
4 3 7 -1 7 -3 0 -9 -7 -12 -15z"/>
<path d="M15661 10734 c0 -11 3 -14 6 -6 3 7 2 16 -1 19 -3 4 -6 -2 -5 -13z"/>
</g>
</svg>
